<!--?xml version="1.0" encoding="utf-8"?-->
<!-- Generator: Adobe Illustrator 18.1.1, SVG Export Plug-In . SVG Version: 6.00 Build 0)  -->

<svg version="1.1" id="_x31_0" xmlns="http://www.w3.org/2000/svg" xmlns:xlink="http://www.w3.org/1999/xlink" x="0px" y="0px" viewBox="0 0 512 512" style="width: 256px; height: 256px; opacity: 1;" xml:space="preserve">
<style type="text/css">
	.st0{fill:#6E88B2;}
</style>
<g>
	<path class="st0" d="M140.39,242.459l72.922-59.702c2.829-2.317,3.168-6.516,0.746-9.254l-47.282-53.5
		c-0.73-0.878-0.949-1.902-0.656-3c2.278-8.179,11.074-45.675-10.633-66.293c-1.152-1.094-2.594-1.438-4.039-1.453
		c-0.019,0-0.035-0.008-0.054-0.008c-0.023,0-0.043,0.008-0.066,0.008c-1.789,0.019-3.457,0.758-4.707,2.152
		c-0.046,0.055-0.086,0.114-0.133,0.172c-0.371,0.442-0.812,0.809-1.062,1.359l-23.043,50.75c-0.586,1.172-1.832,1.976-3.148,1.902
		c-9.141-0.586-44.91,0-57.562,42.277c-0.367,1.098-1.242,1.977-2.414,2.266c-24.722,5.27-47.617,10.387-56.687,12.363
		c-2.047,0.438-3.219,2.782-2.191,4.61c8.488,16.164,26.281,34.558,53.874,43.102c0.122,0.035,0.246,0.07,0.371,0.106
		c2.254,0.687,4.442,1.445,6.828,1.992c18.938,4.379,41.562,4,52.856,3.43c4.254-0.214,8.113,2.359,9.566,6.363l6.374,17.57
		c0.211,0.578,0.629,0.969,0.969,1.442c0.066,0.094,0.118,0.195,0.188,0.285c1.226,1.524,2.957,2.328,4.847,2.352
		c0.024,0,0.047,0.011,0.07,0.011c0.016,0,0.027-0.007,0.039-0.007c0.703-0.004,1.363-0.11,2.047-0.352
		c0.023-0.008,0.042-0.023,0.066-0.031C139.133,243.127,139.809,242.936,140.39,242.459z" style="fill: rgb(110,136,178);"></path>
	<path class="st0" d="M510.738,155.151c-1.238-3.867-3.355-7.293-6.562-9.844c-8.168-6.562-20.27-4.594-26.031,4.156l-41.422,63.18
		c-2.406-0.758-4.906-1.309-7.496-1.614l-185.973-21.922c-1.711-0.18-3.422,0.336-4.754,1.422l-93.641,76.598
		c-2.117,1.73-2.91,4.614-1.977,7.184l5.961,16.442c0.184,0.992,0.36,1.965,0.543,2.957l2.25,165.824
		c0,1.828,1.465,3.218,3.218,3.218h21.722c1.684,0,3.074-1.316,3.219-3l7.973-100.937c0.293-3.875,5.926-4.098,6.438-0.219
		l14.41,101.375c0.219,1.61,1.535,2.781,3.219,2.781h18.871c1.754,0,3.144-1.316,3.218-3l7.461-121.93
		c0.145-1.754,1.68-3.144,3.438-3.074l111.836,4.976c1.679,0.074,2.996,1.317,3.144,2.926l9.446,111.277
		c0.426,4.988,4.598,8.824,9.606,8.824h16.203c1.754,0,3.144-1.316,3.293-3l6.949-98.304c0.18-2.301,2.25-3.34,4.02-2.946
		c0.094,0.019,0.176,0.058,0.266,0.09c0.594,0.188,1.137,0.535,1.547,1.074c0.062,0.086,0.109,0.187,0.167,0.278
		c0.18,0.297,0.344,0.609,0.434,0.992l22.895,99.328c0.367,1.465,1.683,2.488,3.218,2.488h25.527c1.828,0,3.293-1.465,3.293-3.218
		l-1.5-208.371c-0.019-2.93-0.519-5.734-1.175-8.476c-0.157-0.829-0.274-1.602-0.461-2.477l0.167,0.141l0.141,0.258l-0.004-0.137
		l0.164,0.137l-0.074-7.145l42-53.449C511.468,173.014,513.582,163.608,510.738,155.151z" style="fill: rgb(110,136,178);"></path>
</g>
</svg>
